<?xml version="1.0" standalone="no"?>
<!DOCTYPE svg PUBLIC "-//W3C//DTD SVG 20010904//EN"
 "http://www.w3.org/TR/2001/REC-SVG-20010904/DTD/svg10.dtd">
<svg version="1.0" xmlns="http://www.w3.org/2000/svg"
 width="200.000000pt" height="200.000000pt" viewBox="0 0 200.000000 200.000000"
 preserveAspectRatio="xMidYMid meet">
<metadata>
Created by potrace 1.11, written by Peter Selinger 2001-2013
</metadata>
<g transform="translate(0.000000,200.000000) scale(0.100000,-0.100000)"
fill="#000000" stroke="none">
<path d="M899 1996 c-2 -2 -25 -6 -50 -9 -26 -3 -67 -11 -90 -18 -24 -6 -48
-12 -54 -14 -5 -1 -23 -7 -40 -14 -38 -15 -48 -18 -58 -19 -13 -2 -140 -74
-186 -106 -74 -52 -204 -187 -256 -266 -60 -93 -105 -198 -136 -315 -32 -127
-32 -352 0 -470 13 -44 24 -84 25 -90 12 -44 79 -185 88 -185 5 0 8 -5 8 -11
0 -6 8 -21 18 -34 9 -12 24 -33 32 -46 26 -40 152 -164 210 -206 95 -70 208
-123 331 -158 84 -23 113 -27 248 -30 215 -5 377 44 581 174 55 35 191 164
223 211 90 133 100 151 152 285 56 142 68 404 25 560 -12 44 -23 85 -24 90 -4
14 -22 58 -47 112 -39 85 -112 186 -194 268 -187 187 -406 281 -676 291 -69 3
-127 3 -130 0z"/>
</g>
</svg>
